<mxfile host="app.diagrams.net" agent="Mozilla/5.0 (Windows NT 10.0; Win64; x64) AppleWebKit/537.36 (KHTML, like Gecko) Chrome/129.0.0.0 Safari/537.36" version="24.7.16">
  <diagram name="Page-1" id="8M8sIyW9sqyL5muq9qcv">
    <mxGraphModel dx="880" dy="468" grid="1" gridSize="10" guides="1" tooltips="1" connect="1" arrows="1" fold="1" page="1" pageScale="1" pageWidth="850" pageHeight="1100" math="0" shadow="0">
      <root>
        <mxCell id="0" />
        <mxCell id="1" parent="0" />
        <mxCell id="eIzvqOulrVq_vtCdfwBf-9" value="KHỐI HIỂN THỊ" style="swimlane;whiteSpace=wrap;html=1;" parent="1" vertex="1">
          <mxGeometry x="50" y="30" width="200" height="200" as="geometry" />
        </mxCell>
        <mxCell id="eIzvqOulrVq_vtCdfwBf-10" value="KHỐI THU" style="swimlane;whiteSpace=wrap;html=1;" parent="1" vertex="1">
          <mxGeometry x="340" y="30" width="200" height="200" as="geometry" />
        </mxCell>
        <mxCell id="eIzvqOulrVq_vtCdfwBf-11" value="KHỐI PHÁT" style="swimlane;whiteSpace=wrap;html=1;" parent="1" vertex="1">
          <mxGeometry x="640" y="30" width="200" height="200" as="geometry" />
        </mxCell>
        <mxCell id="eIzvqOulrVq_vtCdfwBf-12" value="KHỐI NÚT NHẤN" style="swimlane;whiteSpace=wrap;html=1;" parent="1" vertex="1">
          <mxGeometry x="210" y="260" width="200" height="200" as="geometry" />
        </mxCell>
        <mxCell id="eIzvqOulrVq_vtCdfwBf-13" value="KHỐI ĐỘNG CƠ" style="swimlane;whiteSpace=wrap;html=1;" parent="1" vertex="1">
          <mxGeometry x="480" y="260" width="200" height="200" as="geometry" />
        </mxCell>
      </root>
    </mxGraphModel>
  </diagram>
</mxfile>
